<?xml version="1.0" encoding="UTF-8" standalone="no"?>
<!-- Created with Inkscape (http://www.inkscape.org/) -->

<svg
   width="64pt"
   height="64pt"
   viewBox="0 0 22.577778 22.577778"
   version="1.1"
   id="svg831"
   inkscape:version="1.1.2 (0a00cf5339, 2022-02-04)"
   sodipodi:docname="29 - Healthy Food.svg"
   inkscape:export-filename="/media/taufikramadhan/Data/Tr Design Studio/Project Design/TR Creative Design/Icon Design/Project Hiring/Icon Icons/025 - Healthcare And Medical/5 - Send/3 - Flat/29 - Healthy Food.png"
   inkscape:export-xdpi="576"
   inkscape:export-ydpi="576"
   xmlns:inkscape="http://www.inkscape.org/namespaces/inkscape"
   xmlns:sodipodi="http://sodipodi.sourceforge.net/DTD/sodipodi-0.dtd"
   xmlns="http://www.w3.org/2000/svg"
   xmlns:svg="http://www.w3.org/2000/svg"
   xmlns:rdf="http://www.w3.org/1999/02/22-rdf-syntax-ns#"
   xmlns:cc="http://creativecommons.org/ns#"
   xmlns:dc="http://purl.org/dc/elements/1.1/">
  <defs
     id="defs825">
    <pattern
       id="EMFhbasepattern"
       patternUnits="userSpaceOnUse"
       width="6"
       height="6"
       x="0"
       y="0" />
    <pattern
       id="EMFhbasepattern-9"
       patternUnits="userSpaceOnUse"
       width="6"
       height="6"
       x="0"
       y="0" />
    <pattern
       id="EMFhbasepattern-0"
       patternUnits="userSpaceOnUse"
       width="6"
       height="6"
       x="0"
       y="0" />
    <pattern
       id="EMFhbasepattern-7"
       patternUnits="userSpaceOnUse"
       width="6"
       height="6"
       x="0"
       y="0" />
    <pattern
       id="EMFhbasepattern-2"
       patternUnits="userSpaceOnUse"
       width="6"
       height="6"
       x="0"
       y="0" />
    <pattern
       id="EMFhbasepattern-98"
       patternUnits="userSpaceOnUse"
       width="6"
       height="6"
       x="0"
       y="0" />
    <pattern
       id="EMFhbasepattern-6"
       patternUnits="userSpaceOnUse"
       width="6"
       height="6"
       x="0"
       y="0" />
    <pattern
       id="EMFhbasepattern-01"
       patternUnits="userSpaceOnUse"
       width="6"
       height="6"
       x="0"
       y="0" />
    <pattern
       id="EMFhbasepattern-07"
       patternUnits="userSpaceOnUse"
       width="6"
       height="6"
       x="0"
       y="0" />
    <pattern
       id="EMFhbasepattern-8"
       patternUnits="userSpaceOnUse"
       width="6"
       height="6"
       x="0"
       y="0" />
    <pattern
       id="EMFhbasepattern-4"
       patternUnits="userSpaceOnUse"
       width="6"
       height="6"
       x="0"
       y="0" />
    <pattern
       id="EMFhbasepattern-40"
       patternUnits="userSpaceOnUse"
       width="6"
       height="6"
       x="0"
       y="0" />
    <pattern
       id="EMFhbasepattern-08"
       patternUnits="userSpaceOnUse"
       width="6"
       height="6"
       x="0"
       y="0" />
    <pattern
       id="EMFhbasepattern-04"
       patternUnits="userSpaceOnUse"
       width="6"
       height="6"
       x="0"
       y="0" />
    <pattern
       id="EMFhbasepattern-014"
       patternUnits="userSpaceOnUse"
       width="6"
       height="6"
       x="0"
       y="0" />
    <pattern
       id="EMFhbasepattern-27"
       patternUnits="userSpaceOnUse"
       width="6"
       height="6"
       x="0"
       y="0" />
    <pattern
       id="EMFhbasepattern-09"
       patternUnits="userSpaceOnUse"
       width="6"
       height="6"
       x="0"
       y="0" />
    <pattern
       id="EMFhbasepattern-5"
       patternUnits="userSpaceOnUse"
       width="6"
       height="6"
       x="0"
       y="0" />
    <pattern
       id="EMFhbasepattern-018"
       patternUnits="userSpaceOnUse"
       width="6"
       height="6"
       x="0"
       y="0" />
  </defs>
  <sodipodi:namedview
     id="base"
     pagecolor="#ffffff"
     bordercolor="#666666"
     borderopacity="1.0"
     inkscape:pageopacity="0.0"
     inkscape:pageshadow="2"
     inkscape:zoom="5.4760435"
     inkscape:cx="37.435787"
     inkscape:cy="42.822888"
     inkscape:document-units="pt"
     inkscape:current-layer="layer1"
     showgrid="false"
     units="pt"
     inkscape:window-width="1366"
     inkscape:window-height="719"
     inkscape:window-x="0"
     inkscape:window-y="26"
     inkscape:window-maximized="1"
     inkscape:pagecheckerboard="true"
     inkscape:showpageshadow="false"
     inkscape:object-paths="true"
     inkscape:snap-intersection-paths="true"
     inkscape:snap-smooth-nodes="true"
     inkscape:snap-midpoints="true"
     showguides="true"
     inkscape:snap-bbox="true"
     inkscape:bbox-nodes="true"
     inkscape:snap-nodes="false"
     inkscape:snap-global="true"
     inkscape:snap-others="false">
    <inkscape:grid
       type="xygrid"
       id="grid1378" />
    <sodipodi:guide
       position="0.97013831,21.607643"
       orientation="78.000048,0"
       id="guide1380"
       inkscape:locked="false" />
    <sodipodi:guide
       position="0.97013831,0.97013129"
       orientation="0,78.000005"
       id="guide1382"
       inkscape:locked="false" />
    <sodipodi:guide
       position="21.607639,0.97013129"
       orientation="-78.000048,0"
       id="guide1384"
       inkscape:locked="false" />
    <sodipodi:guide
       position="21.607639,21.607643"
       orientation="0,-78.000005"
       id="guide1386"
       inkscape:locked="false" />
  </sodipodi:namedview>
  <metadata
     id="metadata828">
    <rdf:RDF>
      <cc:Work
         rdf:about="">
        <dc:format>image/svg+xml</dc:format>
        <dc:type
           rdf:resource="http://purl.org/dc/dcmitype/StillImage" />
      </cc:Work>
    </rdf:RDF>
  </metadata>
  <g
     inkscape:label="Icon"
     inkscape:groupmode="layer"
     id="layer1"
     transform="translate(0,-274.42223)">
    <g
       id="g400632"
       style="display:inline;stroke-width:0.794785"
       transform="matrix(1.2582024,0,0,1.2582024,-76.12174,-192.45892)">
      <g
         id="g528850"
         style="stroke-width:0.794785">
        <path
           style="color:#000000;fill:#4895ef;stroke-width:0.794785;stroke-linecap:round;stroke-linejoin:round;stroke-miterlimit:1.5;-inkscape-stroke:none"
           d="m 62.591797,374.61719 a 0.26460996,0.26460996 0 0 0 -0.25586,0.20117 l -0.265625,1.05859 a 0.26460996,0.26460996 0 0 0 -0.0078,0.0645 v 6.3789 a 0.26460996,0.26460996 0 0 0 0.25,0.26367 l 4.234375,0.23633 a 0.26460996,0.26460996 0 0 0 0.279297,-0.26562 v -6.61328 a 0.26460996,0.26460996 0 0 0 -0.0078,-0.0645 l -0.265625,-1.05859 A 0.26460996,0.26460996 0 0 0 66.2969,374.61719 Z"
           id="path304062" />
        <path
           id="path469618"
           style="color:#000000;fill:#4377d1;fill-opacity:1;stroke-width:0.794785;stroke-linecap:round;stroke-linejoin:round;stroke-miterlimit:1.5;-inkscape-stroke:none"
           d="m 66.826447,379.27159 v -3.33019 c -9.6e-5,-0.0218 -0.0029,-0.0435 -0.0083,-0.0646 l -0.265617,-1.05834 c -0.02894,-0.11791 -0.134395,-0.201 -0.2558,-0.20154 l -0.529167,4e-5 c 0.121404,5.4e-4 0.226863,0.0836 0.255799,0.20154 l 0.265618,1.05834 c 0.0054,0.0211 0.0082,0.0428 0.0083,0.0646 v 2.81862 z"
           sodipodi:nodetypes="ccccccccccc" />
        <path
           id="path453666"
           style="color:#000000;fill:#4377d1;fill-opacity:1;stroke-width:0.794785;stroke-linecap:round;stroke-linejoin:round;stroke-miterlimit:1.5;-inkscape-stroke:none"
           d="m 64.41418,380.78699 c -0.162669,-0.0511 -0.341498,-0.11004 -0.611333,-0.13281 -0.482741,-0.0407 -1.121667,0.0338 -1.740461,0.42427 v 1.24178 c 3.51e-4,0.14025 0.110072,0.25587 0.250113,0.26355 l 4.234365,0.23668 c 0.152345,0.009 0.280399,-0.11303 0.279572,-0.26562 l -2.1e-5,-5.29824 c -0.898652,0.38506 -1.533245,1.27898 -1.533242,2.31355 3e-6,0.24792 0.08857,0.46931 0.156065,0.69763 -0.08123,0.10806 -0.12106,0.23849 -0.134877,0.37259 -0.01561,-2.7e-4 -0.03312,-0.006 -0.04857,-0.006 -0.08026,5e-5 -0.150775,0.006 -0.211091,0.01 -0.287632,0.0221 -0.471444,0.0863 -0.64052,0.14262 z"
           sodipodi:nodetypes="ccccccccsccccc" />
        <path
           id="path304068"
           style="color:#000000;fill:#e2f0fa;stroke-width:3.00391;stroke-linecap:round;stroke-linejoin:round;stroke-miterlimit:1.5;-inkscape-stroke:none"
           d="m 246.49219,369.35938 c -1.61028,0.0414 -2.92579,1.37679 -2.92578,2.99609 -1e-5,0.53614 0.1325,1.04995 0.3457,1.53125 -0.58192,-0.12805 -1.2734,-0.28854 -2.10352,-0.4961 -2.3424,-0.58556 -4.23664,0.32711 -5.39648,1.3418 -0.79307,0.63531 -1.42618,1.64995 -1.84569,2.3574 v 9.36524 h 14.89648 c 0.13229,-9.9e-4 0.26307,-0.0282 0.38477,-0.0801 l 2.72461,-1.12695 v -12.16993 c -0.0387,-0.0397 -0.0807,-0.0756 -0.12696,-0.10937 l -3.8164,-2.7832 c -0.5391,-0.404 -1.23626,-0.82617 -2.0586,-0.82617 -0.0257,0 -0.0526,-6.7e-4 -0.0781,0 z"
           transform="matrix(0.26458334,0,0,0.26458334,0,280.06666)"
           sodipodi:nodetypes="sscccccccccccsss" />
        <path
           id="path453545"
           style="fill:#9ebed1;fill-opacity:1;stroke-width:3.00391;stroke-linecap:round;stroke-linejoin:round;stroke-miterlimit:1.5"
           d="m 243.45505,380.67575 c -0.61481,-0.19313 -1.2907,-0.41589 -2.31055,-0.50195 -1.82453,-0.15388 -4.23937,0.12762 -6.57812,1.60351 v 4.67774 h 14.89648 c 0.13229,-9.9e-4 0.26307,-0.0282 0.38477,-0.0801 l 2.72461,-1.12695 v -12.16993 c -0.0387,-0.0397 -0.0807,-0.0756 -0.12696,-0.10937 l -3.67966,-2.68354 c -1.24393,1.60709 -1.98828,3.61566 -1.98828,5.79101 1e-5,0.93702 0.33477,1.77378 0.58985,2.63672 -0.30701,0.40842 -0.45755,0.90137 -0.50977,1.4082 -0.32346,-0.0492 -0.67798,0.001 -0.98146,0.0156 -1.08716,0.0835 -1.78188,0.32635 -2.42091,0.53906 z"
           transform="matrix(0.26458334,0,0,0.26458334,0,280.06666)"
           sodipodi:nodetypes="csccccccccscccc" />
        <path
           id="path166631"
           style="color:#000000;fill:#50b86b;stroke-width:3.00391;stroke-linecap:round;stroke-linejoin:round;stroke-miterlimit:1.5;-inkscape-stroke:none"
           d="m 273.02734,352.35938 a 1.0000006,1.0000006 0 0 0 -1.0039,1.0039 v 5.49805 a 1.0000006,1.0000006 0 0 0 1.0039,0.99805 1.0000006,1.0000006 0 0 0 0.9961,-0.99805 v -5.49805 a 1.0000006,1.0000006 0 0 0 -0.9961,-1.0039 z m 3.53125,2.12304 a 1.0000006,1.0000006 0 0 0 -0.8457,0.48242 c -0.67335,1.09459 -1.31741,2.28534 -1.41016,3.83789 a 1.0000006,1.0000006 0 0 0 0.9375,1.05665 1.0000006,1.0000006 0 0 0 1.06446,-0.9375 c 0.0642,-1.07452 0.47853,-1.88421 1.11328,-2.91602 a 1.0000006,1.0000006 0 0 0 -0.32422,-1.37305 1.0000006,1.0000006 0 0 0 -0.53516,-0.15039 z m -6.97656,0.004 a 1.0000006,1.0000006 0 0 0 -0.53515,0.14648 1.0000006,1.0000006 0 0 0 -0.33204,1.37305 c 0.63476,1.03181 1.05887,1.8415 1.12305,2.91602 a 1.0000006,1.0000006 0 0 0 1.05469,0.9375 1.0000006,1.0000006 0 0 0 0.9375,-1.05665 c -0.0928,-1.55255 -0.73681,-2.74326 -1.41016,-3.83789 a 1.0000006,1.0000006 0 0 0 -0.83789,-0.47851 z"
           transform="matrix(0.26458334,0,0,0.26458334,0,280.06666)" />
        <path
           style="color:#000000;fill:#ec7523;fill-opacity:1;stroke-width:0.794785;stroke-linecap:round;stroke-linejoin:round;stroke-miterlimit:1.5;-inkscape-stroke:none"
           d="m 72.380859,379.64453 a 0.26460996,0.26460996 0 0 0 -0.263672,0.26563 v 1.33203 a 0.26460996,0.26460996 0 0 0 0.269532,0.26367 l 4.753906,-0.0781 a 0.26460996,0.26460996 0 0 0 0.261719,-0.26562 c 0,-0.27911 -0.07317,-0.6425 -0.316407,-0.95899 -0.243232,-0.31648 -0.670308,-0.55859 -1.265625,-0.55859 z"
           id="path304092" />
        <path
           style="color:#000000;fill:#fda35d;stroke-width:3.00391;stroke-linecap:round;stroke-linejoin:round;stroke-miterlimit:1.5;-inkscape-stroke:none"
           d="m 275.56641,380.35742 a 1.0001006,1.0001006 0 0 0 -0.8125,0.42188 l -6.99805,9.82422 a 1.0001006,1.0001006 0 0 0 -0.14844,0.83593 l 2.99805,11.17578 a 1.0000006,1.0000006 0 0 0 0.88867,0.73243 v 0.0117 h 18.07617 c 0.55245,-0.002 0.99821,-0.45146 0.9961,-1.00391 v -14.12109 c 1.72167,-0.44625 3.0039,-2.01985 3.0039,-3.875 0,-2.19871 -1.8013,-4.00196 -4,-4.00196 z"
           transform="matrix(0.26458334,0,0,0.26458334,0,280.06666)"
           id="path304098" />
        <path
           id="path498340"
           style="fill:#fd8c35;fill-opacity:1;stroke-width:3.00391;stroke-linecap:round;stroke-linejoin:round;stroke-miterlimit:1.5"
           d="m 275.56641,380.35742 a 1.0001006,1.0001006 0 0 0 -0.8125,0.42188 l -6.99805,9.82422 a 1.0001006,1.0001006 0 0 0 -0.14844,0.83593 l 2.99805,11.17578 a 1.0000006,1.0000006 0 0 0 0.88867,0.73243 v 0.0117 h 4.75 c 0.13033,-0.31914 0.20251,-0.66127 0.20117,-1.00977 v -1.99219 c 0,-0.94106 -0.39058,-1.6234 -0.72461,-2.32617 0.80318,-0.73531 1.85622,-1.62102 1.97071,-1.77148 5.02933,-5.15604 4.7539,-12.92579 4.7539,-12.92579 v -2.9746 a 1.8757023,1.8757023 0 0 0 0,-0.002 z"
           transform="matrix(0.26458334,0,0,0.26458334,0,280.06666)" />
        <path
           style="color:#000000;fill:#9ebed1;stroke-width:0.794785;stroke-linecap:round;stroke-linejoin:round;stroke-miterlimit:1.5;-inkscape-stroke:none"
           d="m 68.091797,384.9375 a 0.26460996,0.26460996 0 0 0 -0.126953,0.0332 c -0.171917,0.0955 -0.306158,0.24583 -0.416016,0.42188 -0.109858,0.17605 -0.193359,0.37752 -0.193359,0.60156 v 0.5293 a 0.26460996,0.26460996 0 0 0 0.263672,0.26562 h 4.761718 a 0.26460996,0.26460996 0 0 0 0.265625,-0.26562 v -0.5293 c 0,-0.22404 -0.08545,-0.42551 -0.195312,-0.60156 -0.109858,-0.17605 -0.242146,-0.32641 -0.414063,-0.42188 a 0.26460996,0.26460996 0 0 0 -0.128906,-0.0332 z"
           id="path304110" />
        <path
           id="path505967"
           style="color:#000000;fill:#82abc4;fill-opacity:1;stroke-width:3.0039;stroke-linecap:round;stroke-linejoin:round;stroke-miterlimit:1.5;-inkscape-stroke:none"
           d="m 257.35547,396.36133 a 1.0001006,1.0001006 0 0 0 -0.48047,0.12695 c -0.64977,0.36095 -1.15705,0.92837 -1.57227,1.59375 -0.15645,0.25073 -0.2994,0.51553 -0.41601,0.79297 1.60606,0.98755 3.71935,1.82425 6.28125,1.82422 3.02381,-8e-5 3.78088,-8e-5 6.80469,0 2.56368,3e-5 4.6829,-0.81766 6.29296,-1.78516 -0.1209,-0.29163 -0.26984,-0.56962 -0.43359,-0.83203 -0.41521,-0.66538 -0.91664,-1.23292 -1.56641,-1.59375 a 1.0001006,1.0001006 0 0 0 -0.48632,-0.12695 z"
           transform="matrix(0.26458334,0,0,0.26458334,0,280.06666)" />
        <path
           id="path473654"
           style="color:#000000;fill:#fd8c35;fill-opacity:1;stroke-width:0.794785;stroke-linecap:round;stroke-linejoin:round;stroke-miterlimit:1.5;-inkscape-stroke:none"
           d="m 72.910281,380.70289 c -0.08548,3e-4 -0.165554,0.0419 -0.214974,0.11163 l -0.297656,0.41754 h 3.688662 c 0.581739,0 1.058333,0.47711 1.058333,1.05885 0,0.15478 -0.03357,0.30217 -0.09405,0.43512 0.366514,-0.16699 0.623218,-0.5374 0.623218,-0.96428 0,-0.58175 -0.476594,-1.05886 -1.058333,-1.05886 z m 3.439583,2.08411 v 4.00183 h 0.265616 c 0.146169,-5.3e-4 0.264109,-0.11945 0.263551,-0.26562 V 382.787 Z"
           sodipodi:nodetypes="cccsscssccccccc" />
        <path
           style="color:#000000;fill:#dc1c4b;stroke-width:0.794785;stroke-linecap:round;stroke-linejoin:round;stroke-miterlimit:1.5;-inkscape-stroke:none"
           d="m 67.810547,377.5293 c -1.124913,0 -2.042973,0.9161 -2.042969,2.04101 10e-7,0.47257 0.160995,0.91148 0.431641,1.25781 a 0.26460996,0.26460996 0 0 0 0.208984,0.10157 h 2.386719 a 0.26460996,0.26460996 0 0 0 0.265625,-0.25391 l 0.111328,-2.49023 a 0.26460996,0.26460996 0 0 0 -0.09961,-0.22071 c -0.347212,-0.27323 -0.78666,-0.43554 -1.261718,-0.43554 z"
           id="path304116" />
        <path
           id="path517265"
           style="color:#000000;fill:#c71a45;fill-opacity:1;stroke-width:3.00391;stroke-linecap:round;stroke-linejoin:round;stroke-miterlimit:1.5;-inkscape-stroke:none"
           d="m 258.72656,368.75586 c -0.0184,0.0218 -0.0367,0.0442 -0.0547,0.0664 -0.92076,1.13287 -1.12783,2.66537 -0.85547,4.19335 -1.02378,0.84314 -1.79659,1.93595 -2.02539,3.24805 -0.29962,1.71817 0.31647,3.57147 1.71679,4.95117 h 2.50391 a 1.0001006,1.0001006 0 0 0 1.0039,-0.95898 l 0.42188,-9.41211 a 1.0001006,1.0001006 0 0 0 -0.37695,-0.83398 c -0.69133,-0.54402 -1.48046,-0.97098 -2.33399,-1.25391 z"
           transform="matrix(0.26458334,0,0,0.26458334,0,280.06666)" />
        <path
           style="color:#000000;fill:#f0517a;fill-opacity:1;stroke-width:0.794785;stroke-linecap:round;stroke-linejoin:round;stroke-miterlimit:1.5;-inkscape-stroke:none"
           d="m 67.810547,378.05664 c 0.313546,0 0.585263,0.12487 0.826172,0.28711 l -0.09375,2.05664 h -1.960938 c -0.16265,-0.24112 -0.285155,-0.51609 -0.285156,-0.83008 -3e-6,-0.83892 0.674743,-1.51367 1.513672,-1.51367 z"
           id="path304372" />
        <path
           style="color:#000000;fill:#ff7247;stroke-width:0.794785;stroke-linecap:round;stroke-linejoin:round;stroke-miterlimit:1.5;-inkscape-stroke:none"
           d="m 71.3125,374.75 c -0.432812,0 -0.84367,0.3184 -0.859375,0.78125 -0.01065,0.31372 0.01395,0.92992 0.167969,1.45117 l 0.171875,0.64063 a 0.26460996,0.26460996 0 0 0 0.255859,0.19726 h 1.808594 a 0.26460996,0.26460996 0 0 0 0.111328,-0.0254 l 0.539062,-0.25195 a 0.26460996,0.26460996 0 0 0 0.107422,-0.0937 c 0.190536,-0.28581 0.270172,-0.65574 0.320313,-1.01367 0.05014,-0.35793 0.05981,-0.69655 0.05273,-0.9043 -0.0157,-0.46285 -0.42461,-0.78125 -0.857422,-0.78125 z"
           id="path304122" />
        <path
           id="path450736"
           style="color:#000000;fill:#ff531f;fill-opacity:1;stroke-width:0.794785;stroke-linecap:round;stroke-linejoin:round;stroke-miterlimit:1.5;-inkscape-stroke:none"
           d="m 71.312444,374.74977 c -0.366594,0 -0.716955,0.22866 -0.825273,0.57981 0.09429,-0.0328 0.194586,-0.0506 0.296106,-0.0506 l 1.818495,5.2e-4 c 0.432813,0 0.841613,0.31798 0.857311,0.78083 0.0071,0.20775 -0.0026,0.5464 -0.05271,0.90434 -0.03337,0.23823 -0.07979,0.48175 -0.163298,0.70228 l 0.264583,-0.12403 a 0.26460996,0.26460996 0 0 0 0.107487,-0.0935 c 0.190535,-0.28581 0.270253,-0.65596 0.320395,-1.01389 0.05014,-0.35793 0.05979,-0.69659 0.05271,-0.90434 -0.0157,-0.46285 -0.424497,-0.78083 -0.857311,-0.78083 z" />
        <path
           id="path169576"
           style="color:#000000;fill:#e03400;fill-opacity:1;stroke-width:3.00391;stroke-linecap:round;stroke-linejoin:round;stroke-miterlimit:1.5;-inkscape-stroke:none"
           d="m 274.57031,361.35742 a 1.0000006,1.0000006 0 0 0 -1.0039,1.00391 1.0000006,1.0000006 0 0 0 1.0039,0.99609 h 4.97461 c 0.0732,-0.75 0.10182,-1.4406 0.10352,-2 z m -8.07226,3.00391 c 0.0976,0.64876 0.23149,1.3091 0.41601,1.93359 l 0.0176,0.0664 h 5.63672 a 1.0000006,1.0000006 0 0 0 0.99805,-1.00391 1.0000006,1.0000006 0 0 0 -0.99805,-0.99609 z"
           transform="matrix(0.26458334,0,0,0.26458334,0,280.06666)" />
        <path
           id="path416181"
           style="fill:#ff531f;fill-opacity:1;stroke-width:3.00391;stroke-linecap:round;stroke-linejoin:round;stroke-miterlimit:1.5"
           d="m 279.34766,364.83984 c -4.00426,0.11879 -6.73268,1.17953 -8.45118,2.72266 -0.67983,0.61049 -0.97875,1.26042 -1.33007,1.90039 h 5.80078 a 1.0001006,1.0001006 0 0 0 0.41992,-0.0957 l 2.03711,-0.95313 a 1.0001006,1.0001006 0 0 0 0.40625,-0.35351 c 0.61213,-0.91821 0.92179,-2.06618 1.11719,-3.22071 z"
           transform="matrix(0.26458334,0,0,0.26458334,0,280.06666)" />
        <path
           id="path517144"
           style="fill:#dc1c4b;fill-opacity:1;stroke-width:3.00391;stroke-linecap:round;stroke-linejoin:round;stroke-miterlimit:1.5"
           d="m 257.82812,370.62305 c -0.16403,0.7576 -0.15728,1.57592 -0.0117,2.39257 -1.02378,0.84314 -1.79659,1.93595 -2.02539,3.24805 -0.17042,0.97727 -0.0441,1.99828 0.35351,2.95117 h 2.91602 l 0.35351,-7.77343 c -0.49223,-0.3315 -1.01906,-0.62168 -1.58594,-0.81836 z"
           transform="matrix(0.26458334,0,0,0.26458334,0,280.06666)" />
        <path
           style="color:#000000;fill:#50b86b;fill-opacity:1;stroke-width:0.794785;stroke-linecap:round;stroke-linejoin:round;stroke-miterlimit:1.5;-inkscape-stroke:none"
           d="m 71.101603,376.59765 c -0.463089,0.0566 -0.816903,0.34513 -1.062468,0.60565 -0.121566,0.12897 -0.218411,0.25417 -0.287319,0.35191 -0.373608,-0.085 -0.758778,0.075 -0.988055,0.35709 -0.208325,0.25632 -0.278376,0.63923 -0.129707,1.002 -0.284091,0.1445 -0.485645,0.43754 -0.542086,0.7612 -0.08166,0.46829 0.188272,1.02394 0.857311,1.27537 0.02404,0.009 0.04928,0.0147 0.07493,0.0165 0.0081,0.003 0.01642,0.005 0.02479,0.007 l 1.880505,0.36897 c 0.133711,0.0265 0.265683,-0.0529 0.30489,-0.18345 l 0.890386,-3.00809 c 0.01264,-0.0432 0.01405,-0.0889 0.0041,-0.13281 -0.197009,-0.87045 -0.824238,-1.36684 -0.824238,-1.36684 -0.0628,-0.07 -0.143071,-0.0633 -0.203039,-0.0545 z"
           id="path304128"
           sodipodi:nodetypes="cscscsccccccccc" />
        <path
           id="path424279"
           style="color:#000000;fill:#349951;fill-opacity:1;stroke-width:3.00391;stroke-linecap:round;stroke-linejoin:round;stroke-miterlimit:1.5;-inkscape-stroke:none"
           d="m 271.33789,367.19727 c -0.15344,0.11902 -0.30149,0.23959 -0.44141,0.36523 -0.69508,0.62419 -0.99166,1.2895 -1.35351,1.94336 -1.13369,-0.11754 -2.28664,0.0194 -3.24414,0.71875 -0.92837,0.6768 -1.55781,1.72136 -1.7168,2.92578 -0.0374,0.2846 0.0264,0.58071 0.0391,0.87109 -0.56093,0.31484 -1.18897,0.53414 -1.58789,1.04297 -0.81998,1.04629 -1.19593,2.45668 -0.89258,3.8711 0.24879,1.16009 0.92321,2.20278 1.89454,3.05078 l 4.04492,0.79297 a 1.0001006,1.0001006 0 0 0 1.15234,-0.69336 l 3.36524,-11.36914 a 1.0001006,1.0001006 0 0 0 0.0156,-0.50196 c -0.27242,-1.20364 -0.76339,-2.21505 -1.27539,-3.01757 z"
           transform="matrix(0.26458334,0,0,0.26458334,0,280.06666)" />
        <path
           id="path414117"
           style="fill:#ce5d12;fill-opacity:1;stroke-width:3.00391;stroke-linecap:round;stroke-linejoin:round;stroke-miterlimit:1.5"
           d="m 273.56641,376.35742 a 1.0001006,1.0001006 0 0 0 -0.99805,1.00391 v 5.03515 a 1.0001006,1.0001006 0 0 0 0.13672,0.48829 l 4.78515,-0.0312 a 1.3600547,1.3600547 0 0 0 0.008,0 c 0.43992,-0.004 0.87632,-0.13601 1.24804,-0.3711 1.35509,-0.8502 2.07828,-2.0723 2.4336,-3.03906 0.17809,-0.48461 0.2665,-0.91308 0.31836,-1.23438 0.0445,-0.27552 0.0581,-0.45639 0.0605,-0.49804 0.0495,-0.44637 -0.0326,-0.90061 -0.13476,-1.35352 z"
           transform="matrix(0.26458334,0,0,0.26458334,0,280.06666)" />
        <path
           style="color:#000000;fill:#50b86b;stroke-width:0.794785;stroke-linecap:round;stroke-linejoin:round;stroke-miterlimit:1.5;-inkscape-stroke:none"
           d="m 71.92016,377.61936 c -0.217678,0.19547 -0.344562,0.41023 -0.417547,0.59842 -0.278373,-0.088 -0.572193,-0.0535 -0.797367,0.11058 -0.159438,0.11623 -0.274317,0.30341 -0.302823,0.51935 -0.01447,0.10953 -0.0084,0.22432 0.0181,0.34314 -0.196765,0.0541 -0.368263,0.16707 -0.48886,0.32091 -0.149672,0.19097 -0.219464,0.44953 -0.163814,0.709 0.05565,0.25948 0.231286,0.50857 0.515215,0.70693 0.05288,0.0365 0.114776,0.0513 0.174149,0.046 0.0052,4.8e-4 0.01033,8.2e-4 0.0155,0.001 l 2.914033,-0.0196 c 0.04905,-5e-4 0.097,-0.0146 0.138491,-0.0408 0.54334,-0.33939 0.564465,-0.96131 0.564825,-0.971 0.01786,-0.15446 -0.0029,-0.31858 -0.06408,-0.48937 0.465288,-0.4462 0.538144,-1.02841 0.470257,-1.46968 -0.07514,-0.48839 -0.300757,-0.85525 -0.300757,-0.85525 -0.07184,-0.12747 -0.141655,-0.12857 -0.2465,-0.12857 -1.020273,0.0168 -1.651426,0.28005 -2.028822,0.61894 z"
           id="path304152"
           sodipodi:nodetypes="sccsccscccccccsccs" />
        <path
           style="color:#000000;fill:#2a7a40;stroke-width:0.794785;stroke-linecap:round;stroke-linejoin:round;stroke-miterlimit:1.5;-inkscape-stroke:none"
           d="m 73.009766,378.18164 a 0.2645835,0.2645835 0 0 0 -0.1875,0.0781 c -1.06538,1.05936 -1.636719,2.33398 -1.636719,2.33398 a 0.2645835,0.2645835 0 0 0 0.132812,0.35156 0.2645835,0.2645835 0 0 0 0.34961,-0.13281 c 0,0 0.545915,-1.20184 1.527343,-2.17773 a 0.2645835,0.2645835 0 0 0 0.002,-0.375 0.2645835,0.2645835 0 0 0 -0.1875,-0.0781 z"
           id="path138807" />
        <path
           style="color:#000000;fill:#c8dae5;stroke-width:0.794785;stroke-linecap:round;stroke-linejoin:round;stroke-miterlimit:1.5;-inkscape-stroke:none"
           d="m 66.03125,380.43945 a 0.26460996,0.26460996 0 0 0 -0.263672,0.26367 v 0.79493 a 0.26460996,0.26460996 0 0 0 0.01563,0.0918 L 66.869141,384.5 a 0.26460996,0.26460996 0 0 0 0.03516,0.0625 c 0,0 0.838704,1.16799 2.302734,1.16797 0.705555,-1e-5 0.882337,-1e-5 1.587891,0 1.437779,2e-5 2.276285,-1.10231 2.30664,-1.14258 1.161879,-1.16801 1.132813,-3.08984 1.132813,-3.08984 v -0.79493 a 0.26460996,0.26460996 0 0 0 -0.265625,-0.26367 z"
           id="path304186" />
        <path
           style="color:#000000;fill:#dc1c4b;stroke-width:3.00391;stroke-linecap:round;stroke-linejoin:round;stroke-miterlimit:1.5;-inkscape-stroke:none"
           d="m 238.1701,402.52544 c 0.64802,0.45078 1.3514,0.83594 2.19922,0.83594 0.44531,0 0.61271,-0.0962 0.92969,-0.19336 0.75155,-0.2338 1.44052,-0.50109 2.16601,-0.77735 0.72285,0.28661 1.40102,0.52127 2.10938,0.76368 0.34103,0.1062 0.52327,0.20703 0.99609,0.20703 0.84783,0 1.54339,-0.38516 2.19141,-0.83594 1.45006,-1.06482 2.50605,-2.3054 3.61719,-3.75586 3.04283,-4.27253 3.37089,-7.79026 2.67187,-10.32031 -0.34949,-1.26501 -0.93402,-2.26983 -1.48242,-3.01953 -0.5484,-0.74967 -1.09182,-1.28973 -1.24024,-1.46094 -0.0425,-0.0487 -0.0896,-0.0932 -0.14062,-0.13281 -1.91142,-1.4959 -3.90363,-1.94058 -5.51367,-1.93946 l -1.8e-4,-5e-5 c -0.23001,1.7e-4 -0.45099,0.0108 -0.66406,0.0274 -1.15641,0.0895 -2.05269,0.37587 -2.55274,0.57226 -0.49908,-0.18194 -1.37083,-0.44318 -2.46094,-0.53515 -1.73861,-0.14665 -4.02861,0.14095 -6.24414,1.875 -0.0509,0.0397 -0.0983,0.084 -0.14062,0.13281 -0.14842,0.17121 -0.69183,0.71127 -1.24024,1.46094 -0.5484,0.7497 -1.13486,1.75452 -1.48437,3.01953 -0.69902,2.53005 -0.37682,6.04778 2.67001,10.32031 1.10591,1.48926 2.21793,2.63916 3.61337,3.75586 z"
           transform="matrix(0.26458334,0,0,0.26458334,0,280.06666)"
           id="path304192"
           sodipodi:nodetypes="cscccsccssccssccscssscc" />
        <path
           id="path405289"
           style="color:#000000;fill:#c71a45;fill-opacity:1;stroke-width:0.794785;stroke-linecap:round;stroke-linejoin:round;stroke-miterlimit:1.5;-inkscape-stroke:none"
           d="m 66.953021,383.37243 c 0.184949,0.66941 0.09815,1.60014 -0.706933,2.73058 0,0 -0.110982,0.15519 -0.280088,0.35244 0.115592,-0.0944 0.224198,-0.19872 0.32298,-0.30179 0.279821,-0.29199 0.486275,-0.57981 0.486275,-0.57981 0.805082,-1.13044 0.891881,-2.06117 0.706932,-2.73058 -0.143245,-0.48825 -0.415209,-0.90212 -0.738975,-1.20301 -0.524335,-0.41334 -1.05144,-0.531 -1.47743,-0.5307 l 4e-6,3e-5 v 5.3e-4 c -0.06086,5e-5 -0.119327,0.003 -0.175699,0.007 -0.30597,0.0237 -0.543108,0.0994 -0.675413,0.15141 -0.132048,-0.0481 -0.362699,-0.11726 -0.651124,-0.14159 -0.460007,-0.0388 -1.065903,0.0373 -1.652095,0.49609 -0.01347,0.0105 -0.02601,0.0217 -0.03721,0.0346 -0.03788,0.0437 -0.172905,0.17892 -0.312642,0.36639 0.528706,-0.34482 1.059498,-0.40279 1.472777,-0.36794 0.288425,0.0243 0.519075,0.0935 0.651123,0.1416 0.132305,-0.052 0.369443,-0.12772 0.675413,-0.15141 0.05637,-0.004 0.11484,-0.007 0.175699,-0.007 0.42599,-5.4e-4 0.953095,0.11709 1.47743,0.53042 0.327492,0.33043 0.616711,0.77424 0.738976,1.20274 z"
           sodipodi:nodetypes="cccsccccccccscccsccccc" />
        <path
           id="path123012"
           style="color:#000000;fill:#9a605a;fill-opacity:1;stroke-width:3.00391;stroke-linecap:round;stroke-linejoin:round;stroke-miterlimit:1.5;-inkscape-stroke:none"
           d="m 245.44922,377.35547 a 1.0000006,1.0000006 0 0 0 -0.70313,0.30859 c -0.31415,0.3278 -0.58473,0.6738 -0.81836,1.02735 -0.37553,-0.3364 -0.84995,-0.66756 -1.5,-0.79883 a 1.0000006,1.0000006 0 0 0 -1.17968,0.7832 1.0000006,1.0000006 0 0 0 0.78125,1.17969 c 0.1178,0.0227 0.52486,0.27284 0.82031,0.56836 0.0547,0.0547 0.10531,0.11053 0.15234,0.16211 -0.56261,1.62378 -0.53711,2.99218 -0.53711,2.99218 a 1.0000006,1.0000006 0 0 0 1.00391,0.9961 1.0000006,1.0000006 0 0 0 0.99805,-0.9961 c 0,0 0.0722,-2.79916 1.72656,-4.52539 a 1.0000006,1.0000006 0 0 0 -0.0293,-1.41796 1.0000006,1.0000006 0 0 0 -0.71484,-0.2793 z"
           transform="matrix(0.26458334,0,0,0.26458334,0,280.06666)" />
        <path
           style="color:#000000;fill:#c71a45;fill-opacity:1;stroke-width:0.794785;stroke-linecap:round;stroke-linejoin:round;stroke-miterlimit:1.5;-inkscape-stroke:none"
           d="m 63.371094,381.97656 a 0.2645835,0.2645835 0 0 0 -0.175782,0.10156 0.2645835,0.2645835 0 0 0 0.05078,0.3711 c 0,0 0.287899,0.22181 0.71875,0.33008 0.43085,0.10826 1.037588,0.10084 1.621093,-0.32618 a 0.2645835,0.2645835 0 0 0 0.05664,-0.37109 0.2645835,0.2645835 0 0 0 -0.369141,-0.0566 c -0.450801,0.3299 -0.857471,0.3212 -1.179687,0.24023 -0.322216,-0.081 -0.527344,-0.23632 -0.527344,-0.23632 a 0.2645835,0.2645835 0 0 0 -0.195312,-0.0527 z"
           id="path151688" />
        <path
           style="color:#000000;fill:#2f3f4b;stroke-width:0.794785;stroke-linecap:round;stroke-linejoin:round;stroke-miterlimit:1.5;-inkscape-stroke:none"
           d="m 67.119141,379.23437 a 0.264584,0.264584 0 0 0 -0.289063,0.23633 c -0.0032,0.0324 -0.0039,0.0656 -0.0039,0.0996 a 0.264584,0.264584 0 0 0 0.263672,0.26563 0.264584,0.264584 0 0 0 0.265625,-0.26563 c 0,-0.0156 3.65e-4,-0.0309 0.002,-0.0469 a 0.264584,0.264584 0 0 0 -0.238281,-0.28907 z"
           id="path304334" />
        <path
           style="color:#000000;fill:#2f3f4b;stroke-width:0.794785;stroke-linecap:round;stroke-linejoin:round;stroke-miterlimit:1.5;-inkscape-stroke:none"
           d="m 67.808594,378.58594 c -0.03904,0 -0.06935,0.004 -0.09375,0.006 a 0.264584,0.264584 0 0 0 -0.242188,0.28515 0.264584,0.264584 0 0 0 0.285156,0.24219 c 0.02398,-0.002 0.04014,-0.004 0.05078,-0.004 a 0.264584,0.264584 0 0 0 0.265625,-0.26367 0.264584,0.264584 0 0 0 -0.265625,-0.26562 z"
           id="circle155068" />
        <path
           id="path157131"
           style="color:#000000;fill:#1d5c87;stroke-width:3.00391;stroke-linecap:round;stroke-linejoin:round;stroke-miterlimit:1.5;-inkscape-stroke:none"
           d="m 234.78711,361.35742 -0.19141,0.75977 a 1.0001006,1.0001006 0 0 0 -0.0293,0.24414 v 0.99609 h 10.0039 a 1.0000006,1.0000006 0 0 0 0.9961,-0.99609 1.0000006,1.0000006 0 0 0 -0.9961,-1.00391 z"
           transform="matrix(0.26458334,0,0,0.26458334,0,280.06666)" />
        <path
           style="color:#000000;fill:#e2f0fa;stroke-width:0.794785;stroke-linecap:round;stroke-linejoin:round;stroke-miterlimit:1.5;-inkscape-stroke:none"
           d="m 62.591797,373.56055 a 0.26460996,0.26460996 0 0 0 -0.263672,0.26367 v 1.05859 a 0.26460996,0.26460996 0 0 0 0.263672,0.26367 h 3.705078 a 0.26460996,0.26460996 0 0 0 0.263672,-0.26367 v -1.05859 a 0.26460996,0.26460996 0 0 0 -0.263672,-0.26367 z"
           id="path304224" />
        <path
           id="path466686"
           style="color:#000000;fill:#9ebed1;fill-opacity:1;stroke-width:0.794785;stroke-linecap:round;stroke-linejoin:round;stroke-miterlimit:1.5;-inkscape-stroke:none"
           d="m 62.592047,373.5607 a 0.26460996,0.26460996 0 0 0 -0.264068,0.26355 v 0.26561 h 3.439584 a 0.26460996,0.26460996 0 0 1 0.264067,0.26356 v 0.79323 h 0.265099 a 0.26460996,0.26460996 0 0 0 0.264068,-0.26407 v -1.05833 a 0.26460996,0.26460996 0 0 0 -0.264068,-0.26355 z" />
        <path
           style="color:#000000;fill:#e2f0fa;stroke-width:0.794785;stroke-linecap:round;stroke-linejoin:round;stroke-miterlimit:1.5;-inkscape-stroke:none"
           d="m 63.386719,377.79297 a 0.2645835,0.2645835 0 0 0 -0.265625,0.26367 0.2645835,0.2645835 0 0 0 0.265625,0.26563 h 0.527343 a 0.2645835,0.2645835 0 0 0 0.265625,-0.26563 0.2645835,0.2645835 0 0 0 -0.265625,-0.26367 z"
           id="path160573" />
        <path
           style="color:#000000;fill:#e2f0fa;stroke-width:0.794785;stroke-linecap:round;stroke-linejoin:round;stroke-miterlimit:1.5;-inkscape-stroke:none"
           d="M 63.386719,376.73437 A 0.2645835,0.2645835 0 0 0 63.121094,377 a 0.2645835,0.2645835 0 0 0 0.265625,0.26367 h 2.115234 A 0.2645835,0.2645835 0 0 0 65.767578,377 0.2645835,0.2645835 0 0 0 65.501953,376.73437 Z"
           id="path162863" />
        <path
           style="color:#000000;fill:#1d5c87;stroke-width:0.794785;stroke-linecap:round;stroke-linejoin:round;stroke-miterlimit:1.5;-inkscape-stroke:none"
           d="m 63.386719,374.61719 a 0.26460996,0.26460996 0 0 0 -0.1875,0.45312 l 0.263672,0.26367 a 0.26460996,0.26460996 0 0 0 0.375,0 l 0.263671,-0.26367 a 0.26460996,0.26460996 0 0 0 -0.1875,-0.45312 z"
           id="path164863" />
        <path
           style="color:#000000;fill:#fd8c35;stroke-width:0.794785;stroke-linecap:round;stroke-linejoin:round;stroke-miterlimit:1.5;-inkscape-stroke:none"
           d="m 74.794922,384.10937 a 0.2645835,0.2645835 0 0 0 -0.185547,0.0781 l -0.0332,0.0332 a 0.2645835,0.2645835 0 0 0 0,0.37305 0.2645835,0.2645835 0 0 0 0.373047,0 l 0.0332,-0.0332 a 0.2645835,0.2645835 0 0 0 0,-0.37305 0.2645835,0.2645835 0 0 0 -0.1875,-0.0781 z"
           id="path17576-3" />
        <path
           style="color:#000000;fill:#fd8c35;stroke-width:0.794785;stroke-linecap:round;stroke-linejoin:round;stroke-miterlimit:1.5;-inkscape-stroke:none"
           d="m 75.324219,382.78711 a 0.2645835,0.2645835 0 0 0 -0.185547,0.0781 l -0.0332,0.0332 a 0.2645835,0.2645835 0 0 0 0,0.37304 0.2645835,0.2645835 0 0 0 0.373047,0 l 0.0332,-0.0332 a 0.2645835,0.2645835 0 0 0 0,-0.37305 0.2645835,0.2645835 0 0 0 -0.1875,-0.0781 z"
           id="path17576-35" />
        <path
           style="color:#000000;fill:#fd8c35;stroke-width:0.794785;stroke-linecap:round;stroke-linejoin:round;stroke-miterlimit:1.5;-inkscape-stroke:none"
           d="m 74.001953,385.16797 a 0.2645835,0.2645835 0 0 0 -0.1875,0.0781 l -0.0332,0.0332 a 0.2645835,0.2645835 0 0 0 0,0.37304 0.2645835,0.2645835 0 0 0 0.375,0 l 0.0332,-0.0332 a 0.2645835,0.2645835 0 0 0 0,-0.37305 0.2645835,0.2645835 0 0 0 -0.1875,-0.0781 z"
           id="path17576-6" />
        <path
           style="color:#000000;fill:#fd8c35;stroke-width:0.794785;stroke-linecap:round;stroke-linejoin:round;stroke-miterlimit:1.5;-inkscape-stroke:none"
           d="m 75.703125,384.98633 a 0.2645835,0.2645835 0 0 0 -0.1875,0.0762 l -0.0332,0.0332 a 0.2645835,0.2645835 0 0 0 0,0.375 0.2645835,0.2645835 0 0 0 0.375,0 l 0.0332,-0.0332 a 0.2645835,0.2645835 0 0 0 0,-0.375 0.2645835,0.2645835 0 0 0 -0.1875,-0.0762 z"
           id="path17576-7" />
        <path
           style="color:#000000;fill:#fd8c35;stroke-width:0.794785;stroke-linecap:round;stroke-linejoin:round;stroke-miterlimit:1.5;-inkscape-stroke:none"
           d="m 75.324219,381.46484 a 0.2645835,0.2645835 0 0 0 -0.185547,0.0762 l -0.0332,0.0332 a 0.2645835,0.2645835 0 0 0 0,0.375 0.2645835,0.2645835 0 0 0 0.373047,0 l 0.0332,-0.0332 a 0.2645835,0.2645835 0 0 0 0,-0.375 0.2645835,0.2645835 0 0 0 -0.1875,-0.0762 z"
           id="path17576-5" />
        <path
           id="path304270"
           style="color:#000000;fill:#1d5c87;stroke-width:3.00391;stroke-linecap:round;stroke-linejoin:round;stroke-miterlimit:1.5;-inkscape-stroke:none"
           d="m 236.56836,357.35547 a 1.0001006,1.0001006 0 0 0 -0.96875,0.76172 l -0.31055,1.24023 h 16.5586 l -0.31055,-1.24023 a 1.0001006,1.0001006 0 0 0 -0.9668,-0.76172 z"
           transform="matrix(0.26458334,0,0,0.26458334,0,280.06666)" />
      </g>
    </g>
  </g>
</svg>
