<?xml version="1.0" encoding="iso-8859-1"?>
<!-- Uploaded to: SVG Repo, www.svgrepo.com, Generator: SVG Repo Mixer Tools -->
<svg height="800px" width="800px" version="1.1" id="Layer_1" xmlns="http://www.w3.org/2000/svg" xmlns:xlink="http://www.w3.org/1999/xlink" 
	 viewBox="0 0 512 512" xml:space="preserve">
<path style="fill:#FDDD85;" d="M503.467,443.776H8.533c-4.713,0-8.533-3.821-8.533-8.533V8.576c0-4.713,3.821-8.533,8.533-8.533
	h494.933c4.713,0,8.533,3.821,8.533,8.533v426.667C512,439.955,508.179,443.776,503.467,443.776z"/>
<path style="fill:#FDD042;" d="M34.133,435.243V8.576c0-4.713,3.821-8.533,8.533-8.533H8.533C3.821,0.043,0,3.863,0,8.576v426.667
	c0,4.713,3.821,8.533,8.533,8.533h34.133C37.954,443.776,34.133,439.955,34.133,435.243z"/>
<path style="fill:#FDE5A2;" d="M503.467,443.776h-128V0.043h128c4.713,0,8.533,3.821,8.533,8.533v426.667
	C512,439.955,508.179,443.776,503.467,443.776z"/>
<path style="fill:#F2C127;" d="M463.299,104.942l-19.566-19.566l-19.566,19.566c-5.376,5.376-14.567,1.568-14.567-6.034V0.043
	h68.267v98.865C477.867,106.511,468.675,110.318,463.299,104.942z"/>
<g>
	<path style="fill:#4C4E55;" d="M51.2,68.309c-4.713,0-8.533-3.821-8.533-8.533v-8.533c0-4.713,3.821-8.533,8.533-8.533
		s8.533,3.821,8.533,8.533v8.533C59.733,64.489,55.913,68.309,51.2,68.309z"/>
	<path style="fill:#4C4E55;" d="M76.8,68.309c-4.713,0-8.533-3.821-8.533-8.533v-8.533c0-4.713,3.821-8.533,8.533-8.533
		s8.533,3.821,8.533,8.533v8.533C85.333,64.489,81.513,68.309,76.8,68.309z"/>
	<path style="fill:#4C4E55;" d="M341.333,68.309c-4.713,0-8.533-3.821-8.533-8.533v-8.533c0-4.713,3.821-8.533,8.533-8.533
		c4.713,0,8.533,3.821,8.533,8.533v8.533C349.867,64.489,346.046,68.309,341.333,68.309z"/>
	<path style="fill:#4C4E55;" d="M315.733,68.309c-4.713,0-8.533-3.821-8.533-8.533v-8.533c0-4.713,3.821-8.533,8.533-8.533
		c4.713,0,8.533,3.821,8.533,8.533v8.533C324.267,64.489,320.446,68.309,315.733,68.309z"/>
	<path style="fill:#4C4E55;" d="M290.133,68.309c-4.713,0-8.533-3.821-8.533-8.533v-8.533c0-4.713,3.821-8.533,8.533-8.533
		c4.713,0,8.533,3.821,8.533,8.533v8.533C298.667,64.489,294.846,68.309,290.133,68.309z"/>
	<path style="fill:#4C4E55;" d="M247.467,68.309c-4.713,0-8.533-3.821-8.533-8.533v-8.533c0-4.713,3.821-8.533,8.533-8.533
		c4.713,0,8.533,3.821,8.533,8.533v8.533C256,64.489,252.179,68.309,247.467,68.309z"/>
	<path style="fill:#4C4E55;" d="M221.867,68.309c-4.713,0-8.533-3.821-8.533-8.533v-8.533c0-4.713,3.821-8.533,8.533-8.533
		c4.713,0,8.533,3.821,8.533,8.533v8.533C230.4,64.489,226.579,68.309,221.867,68.309z"/>
	<path style="fill:#4C4E55;" d="M196.267,68.309c-4.713,0-8.533-3.821-8.533-8.533v-8.533c0-4.713,3.821-8.533,8.533-8.533
		c4.713,0,8.533,3.821,8.533,8.533v8.533C204.8,64.489,200.979,68.309,196.267,68.309z"/>
	<path style="fill:#4C4E55;" d="M170.667,68.309c-4.713,0-8.533-3.821-8.533-8.533v-8.533c0-4.713,3.821-8.533,8.533-8.533
		c4.713,0,8.533,3.821,8.533,8.533v8.533C179.2,64.489,175.379,68.309,170.667,68.309z"/>
	<path style="fill:#4C4E55;" d="M119.467,68.309c-4.713,0-8.533-3.821-8.533-8.533v-8.533c0-4.713,3.821-8.533,8.533-8.533
		S128,46.53,128,51.243v8.533C128,64.489,124.179,68.309,119.467,68.309z"/>
</g>
<path style="fill:#383B42;" d="M371.326,422.495c-2.185,0-4.368-0.833-6.034-2.499l-66.373-66.374
	c-3.333-3.333-3.333-8.735,0-12.068c3.333-3.331,8.736-3.33,12.067,0l66.373,66.374c3.333,3.333,3.333,8.735,0,12.068
	C375.693,421.662,373.509,422.495,371.326,422.495z"/>
<circle style="fill:#74757B;" cx="196.341" cy="238.976" r="162.059"/>
<circle style="fill:#C3C4C6;" cx="196.341" cy="238.976" r="127.925"/>
<circle style="fill:#EBEBEC;" cx="196.341" cy="238.976" r="110.859"/>
<path style="fill:#74DBC9;" d="M461.835,468.267l-96.543-96.544c-1.6-1.6-3.771-2.499-6.034-2.499c-2.263,0-4.434,0.899-6.034,2.499
	l-24.135,24.137c-3.333,3.333-3.333,8.735,0,12.068l96.544,96.544c4.991,4.991,11.546,7.486,18.101,7.486
	c6.556,0,13.111-2.495,18.101-7.486v-0.001c4.835-4.835,7.498-11.264,7.498-18.102S466.67,473.102,461.835,468.267z"/>
<path style="fill:#6AC8B7;" d="M452.267,501.177c-6.556,0-13.111-2.495-18.101-7.486l-96.544-96.544
	c-2.027-2.028-2.814-4.819-2.374-7.446l-6.159,6.159c-3.333,3.333-3.333,8.735,0,12.068l96.544,96.544
	c4.991,4.991,11.546,7.486,18.101,7.486c6.556,0,13.111-2.495,18.101-7.486v-0.001c2.405-2.406,4.273-5.206,5.542-8.256
	C462.894,499.503,457.588,501.177,452.267,501.177z"/>
<g>
	<path style="fill:#E5563C;" d="M196.267,153.643c-11.763,0-21.333,9.57-21.333,21.333v68.267c0,11.763,9.57,21.333,21.333,21.333
		s21.333-9.57,21.333-21.333v-68.267C217.6,163.213,208.03,153.643,196.267,153.643z"/>
	<circle style="fill:#E5563C;" cx="196.267" cy="298.709" r="25.6"/>
</g>
</svg>